<svg id="Layer_1" data-name="Layer 1" xmlns="http://www.w3.org/2000/svg" width="61.36mm" height="61.76mm" viewBox="0 0 173.93 175.06"><defs><style>.cls-1{fill:#fcfafb;stroke:#000;stroke-miterlimit:10;stroke-width:6px;}.cls-2{fill:#573a15;}.cls-3{fill:#80a92f;}.cls-4{fill:#d9a55f;}.cls-5{fill:#59342f;}.cls-6{fill:#bf4949;}.cls-7{fill:#ffcb3f;}.cls-8{fill:#ecb889;}</style></defs><title>Artboard 3</title><circle class="cls-1" cx="87.3" cy="88.13" r="83.13"/><rect class="cls-2" x="39.68" y="98.48" width="79.51" height="2.82" transform="translate(-32.23 161.68) rotate(-80.47)"/><ellipse class="cls-3" cx="111.34" cy="121.51" rx="6.11" ry="9.93" transform="translate(-11.08 231.86) rotate(-89.53)"/><ellipse class="cls-3" cx="89.85" cy="119.9" rx="6.11" ry="15.29" transform="translate(-30.78 208.76) rotate(-89.53)"/><ellipse class="cls-3" cx="63.02" cy="119.68" rx="6.11" ry="15.29" transform="translate(-57.17 181.71) rotate(-89.53)"/><path class="cls-4" d="M38.45,64C37.73,48.82,59,35.51,86,34.22s49.44,9.93,50.17,25.06"/><path class="cls-5" d="M45.69,66l82.66,6.94a7.45,7.45,0,0,1,6.79,8h0a7.44,7.44,0,0,1-8,6.78L44.45,80.78a7.45,7.45,0,0,1-6.79-8h0A7.44,7.44,0,0,1,45.69,66Z"/><ellipse class="cls-3" cx="85.39" cy="122.18" rx="5.23" ry="45.67" transform="translate(-37.48 206.56) rotate(-89.53)"/><path class="cls-6" d="M44.77,86.59,54,86.4a23.91,23.91,0,0,1,6.64.55,6.56,6.56,0,0,1,3.69,2.67c1,1.37,1.45,3.59,1.52,6.66,0,2.08-.26,3.54-.89,4.37a6.83,6.83,0,0,1-3.82,2c2.15.44,3.61,1.22,4.4,2.32a9.33,9.33,0,0,1,1.24,5.13l.07,3.3a13,13,0,0,1-.72,5.36,4.38,4.38,0,0,1-2.58,2.43c-1.19.44-3.64.71-7.36.78l-10.7.22Zm9.4,5.89.16,7.91h.93c.9,0,1.48-.26,1.72-.71a10.79,10.79,0,0,0,.29-3.84,6.38,6.38,0,0,0-.35-2.33,1.46,1.46,0,0,0-.82-.83A7.36,7.36,0,0,0,54.17,92.48Zm.27,13.44.2,10a4,4,0,0,0,2.49-.66,4.31,4.31,0,0,0,.48-2.71l-.07-3.32q0-2.28-.54-2.76a4.5,4.5,0,0,0-2.59-.55Z"/><path class="cls-6" d="M69.62,86.09,85,85.78l.13,7.11L79,93l.16,6.76,5.77-.12.14,6.77-5.78.11.16,7.82,6.79-.13.14,7.12-16,.32Z"/><path class="cls-6" d="M108.17,96.08l-8.59.17-.06-2.64a5.24,5.24,0,0,0-.37-2.34A1.23,1.23,0,0,0,98,90.79a1.41,1.41,0,0,0-1.25.7,4,4,0,0,0-.39,2.08,5.84,5.84,0,0,0,.54,2.67,6.87,6.87,0,0,0,2.66,2.12q6.24,3.54,7.89,5.86c1.11,1.55,1.69,4.06,1.76,7.55a13.26,13.26,0,0,1-.78,5.62,7,7,0,0,1-3.37,3.09,13.54,13.54,0,0,1-5.93,1.34,13.2,13.2,0,0,1-6.37-1.28A6.85,6.85,0,0,1,89.27,117a18.35,18.35,0,0,1-.93-6.16v-2.33l8.59-.17.09,4.33a5.47,5.47,0,0,0,.41,2.56,1.39,1.39,0,0,0,1.3.54,1.49,1.49,0,0,0,1.35-.75,4,4,0,0,0,.41-2.16c0-2.09-.35-3.46-.94-4.09a28.29,28.29,0,0,0-4.39-3.14,41.34,41.34,0,0,1-4.64-3.23,7.67,7.67,0,0,1-1.91-2.82A12.77,12.77,0,0,1,87.73,95a13,13,0,0,1,.92-6A7,7,0,0,1,92,86a13.5,13.5,0,0,1,5.6-1.18,14.74,14.74,0,0,1,6.16,1,6.44,6.44,0,0,1,3.44,2.85,15.4,15.4,0,0,1,1,6Z"/><path class="cls-6" d="M130.17,84.87l.14,7.11-5.49.11.57,28.45-9.25.19-.57-28.45-5.47.11L110,85.28Z"/><path class="cls-4" d="M126,149.3l-80.35-6.38c-3.65-.27-8.37-5.84-8.09-9.56h0a6.72,6.72,0,0,1,7.13-6.25l83.64,6.21a6.75,6.75,0,0,1,6.13,7.24h0C134.17,144.27,129.64,149.57,126,149.3Z"/><ellipse class="cls-3" cx="50.85" cy="124.02" rx="6.11" ry="13.83" transform="translate(-79.88 153.63) rotate(-80.47)"/><ellipse class="cls-3" cx="73.85" cy="122.96" rx="6.11" ry="15.29" transform="translate(-49.72 195.8) rotate(-89.53)"/><ellipse class="cls-3" cx="98.7" cy="124.18" rx="6.11" ry="15.29" transform="translate(-26.29 221.86) rotate(-89.53)"/><ellipse class="cls-3" cx="118.59" cy="123.3" rx="14.22" ry="6.11" transform="translate(-13.14 14.15) rotate(-6.47)"/><path class="cls-7" d="M132.53,67.23h0L90.79,80.66a2.22,2.22,0,0,1-1.25,0L40.72,66.47h0l50.65-.76Z"/><rect class="cls-2" x="78.93" y="25.99" width="25.33" height="2.82" transform="translate(49.41 113.19) rotate(-80.47)"/><ellipse class="cls-8" cx="64.24" cy="42.62" rx="0.71" ry="1.27" transform="translate(21.1 106.51) rotate(-89.53)"/><ellipse class="cls-8" cx="72.61" cy="39.1" rx="0.71" ry="1.27" transform="translate(32.92 111.39) rotate(-89.53)"/><ellipse class="cls-8" cx="75.18" cy="43.42" rx="0.71" ry="1.27" transform="translate(31.14 118.25) rotate(-89.53)"/><ellipse class="cls-8" cx="82.85" cy="37.76" rx="0.71" ry="1.27" transform="translate(44.42 120.3) rotate(-89.53)"/><ellipse class="cls-8" cx="82.81" cy="42.77" rx="0.71" ry="1.27" transform="translate(39.37 125.23) rotate(-89.53)"/><ellipse class="cls-8" cx="97.4" cy="39.3" rx="0.71" ry="1.27" transform="translate(57.3 136.38) rotate(-89.53)"/><ellipse class="cls-8" cx="93.28" cy="45" rx="0.71" ry="1.27" transform="translate(47.52 137.9) rotate(-89.53)"/><rect class="cls-7" x="85.22" y="18.1" width="2.84" height="94.66" rx="1.42" transform="translate(20.5 151.53) rotate(-89.53)"/><ellipse class="cls-8" cx="107.04" cy="42.26" rx="0.71" ry="1.27" transform="translate(63.91 148.95) rotate(-89.53)"/></svg>