<?xml version="1.0" encoding="utf-8"?>
<!-- Generator: Adobe Illustrator 23.0.0, SVG Export Plug-In . SVG Version: 6.00 Build 0)  -->
<svg version="1.1" id="Layer_1" xmlns="http://www.w3.org/2000/svg" xmlns:xlink="http://www.w3.org/1999/xlink" x="0px" y="0px"
	 viewBox="0 0 173.9 175.1" style="enable-background:new 0 0 173.9 175.1;" xml:space="preserve">
<style type="text/css">
	.st0{fill:#FCFAFB;stroke:#000000;stroke-width:3;stroke-miterlimit:10;}
	.st1{fill:#573A15;}
	.st2{fill:#80A92F;}
	.st3{fill:#D9A55F;}
	.st4{fill:#59342F;}
	.st5{fill:#BF4949;}
	.st6{fill:#FFCB3F;}
	.st7{fill:#ECB889;}
</style>
<title>Artboard 1</title>
<circle class="st0" cx="87.3" cy="88.1" r="83.1"/>
<rect x="39.7" y="98.5" transform="matrix(0.1656 -0.9862 0.9862 0.1656 -32.2322 161.6827)" class="st1" width="79.5" height="2.8"/>
<ellipse transform="matrix(8.202977e-03 -1 1 8.202977e-03 -11.0782 231.8559)" class="st2" cx="111.3" cy="121.5" rx="6.1" ry="9.9"/>
<ellipse transform="matrix(8.202977e-03 -1 1 8.202977e-03 -30.7833 208.7608)" class="st2" cx="89.8" cy="119.9" rx="6.1" ry="15.3"/>
<ellipse transform="matrix(8.202977e-03 -1 1 8.202977e-03 -57.1693 181.7121)" class="st2" cx="63" cy="119.7" rx="6.1" ry="15.3"/>
<path class="st3" d="M38.5,63.9C37.7,48.8,59,35.5,86,34.2s49.4,9.9,50.2,25.1"/>
<path class="st4" d="M45.7,66l82.7,6.9c4.1,0.3,7.1,3.9,6.8,8l0,0c-0.3,4.1-3.9,7.1-8,6.8l-82.7-6.9c-4.1-0.3-7.1-3.9-6.8-8l0,0
	C38,68.7,41.6,65.6,45.7,66z"/>
<ellipse transform="matrix(8.202977e-03 -1 1 8.202977e-03 -37.4815 206.5643)" class="st2" cx="85.4" cy="122.2" rx="5.2" ry="45.7"/>
<path class="st5" d="M44.8,86.6l9.2-0.2c2.2-0.1,4.5,0.1,6.6,0.5c1.5,0.4,2.8,1.4,3.7,2.7c1,1.4,1.4,3.6,1.5,6.7
	c0,2.1-0.3,3.5-0.9,4.4c-1,1.1-2.4,1.8-3.8,2c2.1,0.4,3.6,1.2,4.4,2.3c0.9,1.6,1.3,3.3,1.2,5.1l0.1,3.3c0.1,1.8-0.1,3.6-0.7,5.4
	c-0.5,1.1-1.4,2-2.6,2.4c-1.2,0.4-3.6,0.7-7.4,0.8l-10.7,0.2L44.8,86.6z M54.2,92.5l0.2,7.9h0.9c0.9,0,1.5-0.3,1.7-0.7
	c0.3-1.3,0.4-2.6,0.3-3.8c0-0.8-0.1-1.6-0.3-2.3c-0.1-0.4-0.4-0.7-0.8-0.8C55.5,92.5,54.8,92.5,54.2,92.5z M54.4,105.9l0.2,10
	c0.9,0.1,1.8-0.2,2.5-0.7c0.5-0.8,0.6-1.8,0.5-2.7l-0.1-3.3c0-1.5-0.2-2.4-0.5-2.8C56.2,106,55.3,105.8,54.4,105.9L54.4,105.9z"/>
<path class="st5" d="M69.6,86.1L85,85.8l0.1,7.1L79,93l0.2,6.8l5.8-0.1l0.1,6.8l-5.8,0.1l0.2,7.8l6.8-0.1l0.1,7.1l-16,0.3L69.6,86.1
	z"/>
<path class="st5" d="M108.2,96.1l-8.6,0.2l-0.1-2.6c0.1-0.8-0.1-1.6-0.4-2.3c-0.3-0.3-0.7-0.5-1.1-0.5c-0.5,0-1,0.3-1.2,0.7
	c-0.3,0.6-0.5,1.4-0.4,2.1c0,0.9,0.2,1.8,0.5,2.7c0.7,0.9,1.6,1.6,2.7,2.1c4.2,2.4,6.8,4.3,7.9,5.9c1.1,1.5,1.7,4.1,1.8,7.5
	c0.1,1.9-0.1,3.8-0.8,5.6c-0.7,1.4-1.9,2.5-3.4,3.1c-1.9,0.9-3.9,1.3-5.9,1.3c-2.2,0.1-4.4-0.3-6.4-1.3c-1.6-0.7-2.8-2-3.5-3.5
	c-0.7-2-1-4.1-0.9-6.2v-2.3l8.6-0.2l0.1,4.3c-0.1,0.9,0.1,1.8,0.4,2.6c0.3,0.4,0.8,0.6,1.3,0.5c0.6,0,1.1-0.3,1.3-0.7
	c0.3-0.7,0.5-1.4,0.4-2.2c0-2.1-0.3-3.5-0.9-4.1c-1.4-1.2-2.8-2.2-4.4-3.1c-1.6-1-3.2-2.1-4.6-3.2c-0.8-0.8-1.5-1.8-1.9-2.8
	c-0.6-1.5-0.9-3-0.9-4.6c-0.2-2,0.1-4.1,0.9-6c0.8-1.3,1.9-2.4,3.3-3c1.8-0.8,3.7-1.2,5.6-1.2c2.1-0.1,4.2,0.2,6.2,1
	c1.5,0.5,2.7,1.5,3.4,2.9c0.7,1.9,1.1,4,1,6V96.1z"/>
<path class="st5" d="M130.2,84.9l0.1,7.1l-5.5,0.1l0.6,28.4l-9.2,0.2l-0.6-28.4l-5.5,0.1l-0.1-7.1L130.2,84.9z"/>
<path class="st3" d="M126,149.3l-80.3-6.4c-3.6-0.3-8.4-5.8-8.1-9.6l0,0c0.3-3.7,3.4-6.5,7.1-6.2l83.6,6.2c3.7,0.3,6.4,3.6,6.1,7.2
	l0,0C134.2,144.3,129.6,149.6,126,149.3z"/>
<ellipse transform="matrix(0.1656 -0.9862 0.9862 0.1656 -79.8823 153.6348)" class="st2" cx="50.8" cy="124" rx="6.1" ry="13.8"/>
<ellipse transform="matrix(8.202977e-03 -1 1 8.202977e-03 -49.7169 195.8)" class="st2" cx="73.8" cy="123" rx="6.1" ry="15.3"/>
<ellipse transform="matrix(8.202977e-03 -1 1 8.202977e-03 -26.2888 221.8627)" class="st2" cx="98.7" cy="124.2" rx="6.1" ry="15.3"/>
<ellipse transform="matrix(0.9936 -0.1127 0.1127 0.9936 -13.1381 14.1482)" class="st2" cx="118.6" cy="123.3" rx="14.2" ry="6.1"/>
<path class="st6" d="M132.5,67.2L132.5,67.2L90.8,80.7c-0.4,0.1-0.8,0.1-1.2,0L40.7,66.5l0,0l50.6-0.8L132.5,67.2z"/>
<rect x="78.9" y="26" transform="matrix(0.1656 -0.9862 0.9862 0.1656 49.4107 113.1906)" class="st1" width="25.3" height="2.8"/>
<ellipse transform="matrix(8.202977e-03 -1 1 8.202977e-03 21.0991 106.5082)" class="st7" cx="64.2" cy="42.6" rx="0.7" ry="1.3"/>
<ellipse transform="matrix(8.202977e-03 -1 1 8.202977e-03 32.9172 111.3868)" class="st7" cx="72.6" cy="39.1" rx="0.7" ry="1.3"/>
<ellipse transform="matrix(8.202977e-03 -1 1 8.202977e-03 31.1417 118.2473)" class="st7" cx="75.2" cy="43.4" rx="0.7" ry="1.3"/>
<ellipse transform="matrix(8.202977e-03 -1 1 8.202977e-03 44.4173 120.3004)" class="st7" cx="82.9" cy="37.8" rx="0.7" ry="1.3"/>
<ellipse transform="matrix(8.202977e-03 -1 1 8.202977e-03 39.3664 125.2297)" class="st7" cx="82.8" cy="42.8" rx="0.7" ry="1.3"/>
<ellipse transform="matrix(8.202977e-03 -1 1 8.202977e-03 57.3034 136.3789)" class="st7" cx="97.4" cy="39.3" rx="0.7" ry="1.3"/>
<ellipse transform="matrix(8.202977e-03 -1 1 8.202977e-03 47.5173 137.9048)" class="st7" cx="93.3" cy="45" rx="0.7" ry="1.3"/>
<path class="st6" d="M40.7,63.6l91.8,0.8c0.8,0,1.4,0.6,1.4,1.4v0c0,0.8-0.6,1.4-1.4,1.4l-91.8-0.8c-0.8,0-1.4-0.6-1.4-1.4l0,0
	C39.3,64.3,40,63.6,40.7,63.6z"/>
<ellipse transform="matrix(8.202977e-03 -1 1 8.202977e-03 63.9085 148.9473)" class="st7" cx="107" cy="42.3" rx="0.7" ry="1.3"/>
</svg>
